<?xml version="1.0" standalone="no"?>
<!DOCTYPE svg PUBLIC "-//W3C//DTD SVG 20010904//EN"
 "http://www.w3.org/TR/2001/REC-SVG-20010904/DTD/svg10.dtd">
<svg version="1.0" xmlns="http://www.w3.org/2000/svg"
 width="256.000000pt" height="256.000000pt" viewBox="0 0 256.000000 256.000000"
 preserveAspectRatio="xMidYMid meet">
<metadata>
Created by potrace 1.14, written by Peter Selinger 2001-2017
</metadata>
<g transform="translate(0.000000,256.000000) scale(0.100000,-0.100000)"
fill="#000000" stroke="none">
<path d="M1150 2555 c-8 -2 -49 -9 -90 -16 -41 -7 -77 -13 -80 -14 -365 -92
-669 -332 -836 -660 -97 -190 -135 -343 -139 -555 -8 -408 153 -760 464 -1019
150 -124 352 -223 532 -260 30 -6 65 -14 79 -17 14 -3 90 -7 170 -9 141 -3
249 8 351 35 24 7 45 12 46 11 8 -2 145 55 203 84 356 179 608 509 686 897 19
97 26 336 13 423 -38 245 -135 462 -286 643 -31 37 -68 77 -82 90 -14 13 -46
41 -70 63 -59 54 -170 128 -259 173 -66 33 -225 92 -276 102 -12 2 -37 7 -56
10 -19 4 -44 9 -55 11 -24 5 -294 12 -315 8z"/>
</g>
</svg>
