<?xml version="1.0" standalone="no"?>
<!DOCTYPE svg PUBLIC "-//W3C//DTD SVG 20010904//EN"
 "http://www.w3.org/TR/2001/REC-SVG-20010904/DTD/svg10.dtd">
<svg version="1.0" xmlns="http://www.w3.org/2000/svg"
 width="256.000000pt" height="256.000000pt" viewBox="0 0 256.000000 256.000000"
 preserveAspectRatio="xMidYMid meet">
<metadata>
Created by potrace 1.14, written by Peter Selinger 2001-2017
</metadata>
<g transform="translate(0.000000,256.000000) scale(0.100000,-0.100000)"
fill="#000000" stroke="none">
<path d="M1355 2229 c-27 -4 -86 -8 -130 -8 -145 -2 -248 -38 -386 -134 -125
-88 -190 -182 -255 -367 -31 -89 -27 -294 9 -425 15 -55 39 -122 53 -150 15
-27 32 -67 40 -88 l13 -38 -33 36 c-33 34 -76 47 -76 23 0 -7 17 -22 37 -33
21 -11 43 -31 50 -45 34 -67 62 -139 68 -172 6 -33 5 -37 -17 -41 -19 -3 -18
-5 8 -6 25 -1 33 -8 51 -43 59 -121 195 -249 350 -330 151 -79 248 -95 397
-63 121 26 182 76 293 243 68 101 102 196 110 304 4 55 13 97 27 123 16 31 22
61 23 135 2 52 4 106 5 119 2 19 -20 45 -39 46 -1 0 4 29 12 65 37 182 24 343
-40 475 -46 94 -82 135 -153 173 -33 18 -65 39 -72 47 -7 8 -19 15 -27 15 -7
0 -16 8 -20 18 -12 33 -46 62 -75 62 -16 0 -46 12 -68 26 -49 33 -92 42 -155
33z m58 -16 c-7 -2 -19 -2 -25 0 -7 3 -2 5 12 5 14 0 19 -2 13 -5z m-39 -105
c-4 -7 -24 -35 -45 -63 -20 -27 -69 -104 -109 -170 -75 -122 -110 -174 -110
-160 0 11 125 229 163 285 45 65 130 156 101 108z m-334 -187 c0 -5 -9 -19
-21 -32 l-20 -24 17 33 c19 33 24 38 24 23z m799 -372 c6 -20 9 -45 5 -55 -4
-12 -3 -15 3 -7 5 7 8 -21 7 -65 0 -45 4 -80 10 -84 6 -4 -16 -8 -49 -8 -34 0
-87 -7 -120 -15 -37 -10 -75 -13 -102 -9 -50 7 -55 1 -15 -20 l27 -15 -31 -1
c-23 0 -33 -6 -37 -20 -3 -10 0 -21 7 -23 6 -3 -17 -2 -51 1 -46 3 -75 0 -109
-13 l-46 -17 -51 28 c-47 26 -61 29 -142 28 -89 -1 -121 -9 -260 -61 -38 -14
-51 -24 -53 -43 -2 -14 3 -27 12 -32 10 -6 16 -23 16 -47 0 -51 25 -131 55
-175 13 -20 22 -36 18 -36 -3 0 0 -7 7 -15 7 -8 16 -12 21 -9 5 2 23 -3 41
-12 21 -12 56 -18 98 -18 114 0 203 56 244 155 20 49 29 139 17 171 -7 19 -7
29 2 37 21 17 102 31 133 22 24 -6 29 -13 31 -42 2 -30 1 -31 -7 -9 -7 21 -8
22 -9 5 -1 -30 19 -96 28 -91 11 7 33 -43 25 -56 -5 -7 -2 -8 6 -3 10 6 12 4
7 -8 -3 -8 1 -21 9 -27 8 -7 14 -9 14 -5 0 4 14 -5 30 -19 58 -48 168 -58 239
-22 27 14 29 14 27 -2 -1 -9 -17 -24 -34 -33 -37 -19 -32 -31 8 -19 27 8 28 7
19 -22 -14 -50 -38 -79 -84 -99 -43 -19 -44 -19 -95 1 -31 12 -74 20 -111 20
-55 0 -59 1 -45 16 17 17 21 80 7 103 -6 10 -8 1 -4 -25 5 -36 2 -43 -22 -62
-40 -32 -101 -30 -137 5 l-28 27 0 -26 c0 -14 7 -31 15 -38 22 -18 2 -30 -51
-30 -54 0 -112 -21 -164 -59 -70 -51 -151 -36 -240 45 -74 67 -91 125 -106
357 -3 53 -10 95 -14 92 -5 -3 -5 6 -2 19 8 25 82 115 82 98 0 -5 11 -13 25
-16 19 -5 47 4 105 34 l79 41 83 -7 c72 -6 81 -5 71 7 -10 13 2 22 73 57 46
23 92 42 102 42 14 0 15 -2 2 -10 -13 -8 -13 -11 1 -26 16 -15 21 -15 67 0 67
22 135 69 180 122 l36 44 23 -22 c19 -18 25 -19 39 -7 9 7 20 24 25 38 11 29
22 20 38 -30z m-646 -159 c-5 -20 -19 -25 -47 -14 -21 8 1 33 31 34 16 0 20
-5 16 -20z m672 -110 c-11 -5 -15 -9 -8 -9 7 -1 11 -20 10 -53 0 -32 7 -69 18
-93 11 -22 22 -53 26 -70 4 -20 7 -3 8 50 2 131 36 150 36 20 0 -65 -3 -78
-30 -116 -42 -59 -85 -82 -154 -82 -82 0 -136 34 -175 110 -23 46 -20 58 7 27
20 -23 28 -26 59 -20 20 4 39 13 42 21 3 8 13 15 21 15 9 0 13 -4 10 -10 -3
-5 -2 -10 3 -10 13 0 32 47 32 79 0 16 -9 40 -21 55 -14 18 -16 26 -7 26 23 0
80 -40 85 -61 3 -10 9 -19 14 -19 13 0 11 34 -3 50 -11 12 -10 12 7 0 15 -11
14 -8 -4 13 -14 15 -20 27 -15 27 5 0 2 5 -6 10 -13 8 -12 10 3 10 24 0 21 19
-5 30 -19 7 -15 9 22 9 34 0 40 -3 25 -9z m-1065 -22 c0 -18 -2 -20 -9 -8 -6
8 -7 18 -5 22 9 14 14 9 14 -14z m807 -36 c-9 -9 -20 -29 -26 -42 -6 -15 -10
-19 -10 -9 -1 16 35 69 46 69 3 0 -1 -8 -10 -18z m-339 -26 c34 -17 52 -44 51
-73 0 -16 -1 -16 -9 2 -5 11 -9 16 -9 12 -1 -5 -8 -1 -18 8 -9 10 -26 15 -39
12 -13 -2 -21 0 -18 4 3 5 2 9 -3 9 -4 1 -30 3 -58 5 -80 8 -147 -17 -204 -75
-53 -53 -65 -50 -47 14 14 48 47 74 118 92 67 17 194 12 236 -10z m379 -40
c-4 -9 -11 -16 -17 -16 -17 0 -24 31 -9 41 18 11 34 -5 26 -25z m-378 -77 c22
-32 23 -33 17 -7 -7 32 3 41 28 23 15 -11 17 -21 11 -57 -23 -139 -103 -205
-238 -196 -78 5 -129 38 -158 102 -19 42 -25 81 -11 72 4 -2 17 7 27 20 11 14
34 42 51 62 l31 36 -4 -51 c-7 -72 14 -103 72 -103 29 0 47 6 60 20 23 25 47
27 38 3 -5 -15 -3 -14 10 2 19 23 22 87 5 118 -11 21 -10 21 13 6 13 -9 35
-31 48 -50z m308 29 c-3 -8 -6 -5 -6 6 -1 11 2 17 5 13 3 -3 4 -12 1 -19z
m-481 1 c9 -15 -11 -33 -30 -26 -9 4 -13 13 -10 22 7 17 30 20 40 4z m571
-482 c-6 -43 -30 -75 -66 -89 -19 -7 -31 -4 -52 12 -20 14 -43 20 -79 20 -45
0 -55 -4 -78 -30 -59 -67 -172 -11 -172 85 0 24 3 26 28 20 16 -3 75 -6 133
-6 101 -1 202 20 249 51 23 15 42 -18 37 -63z m-177 42 c-25 -4 -74 -7 -110
-7 l-65 1 50 7 c28 4 77 7 110 7 l60 0 -45 -8z"/>
<path d="M950 815 c0 -2 10 -10 23 -16 20 -11 21 -11 8 4 -13 16 -31 23 -31
12z"/>
</g>
</svg>
